<svg xmlns="http://www.w3.org/2000/svg" width="1024" height="1024" viewBox="0 0 1024 1024">
<g>
<path d="M 0.00 0.00 L 1024.00 0.00 L 1024.00 1024.00 L 0.00 1024.00 ZM 500.00 599.50 C509.59,602.84 517.98,602.73 526.61,599.14 C545.05,591.47 643.76,543.01 677.56,525.02 C698.65,513.80 705.38,509.22 708.44,504.00 C710.46,500.57 710.51,499.05 710.78,432.92 L 711.05 365.34 L 725.97 358.08 C737.93,352.26 741.80,349.85 745.45,345.95 C751.98,338.97 751.84,335.18 744.41,318.24 C741.33,311.23 735.10,296.73 730.57,286.00 C726.03,275.27 721.23,264.41 719.91,261.87 C714.58,251.60 705.58,246.16 649.50,219.22 C593.64,192.40 529.11,161.55 523.00,158.75 C514.69,154.94 509.73,154.90 503.43,158.59 C500.82,160.12 493.47,163.81 487.10,166.78 C480.72,169.76 469.42,175.02 462.00,178.47 C454.58,181.93 442.65,187.55 435.50,190.96 C416.15,200.20 409.67,203.24 397.00,209.03 C390.67,211.92 379.88,216.95 373.00,220.22 C360.92,225.95 356.74,227.90 345.00,233.27 C312.58,248.09 309.85,249.78 306.61,257.00 C305.25,260.02 303.19,264.98 302.03,268.00 C300.86,271.02 298.87,275.75 297.61,278.50 C296.34,281.25 293.62,287.55 291.58,292.50 C289.53,297.45 287.26,302.62 286.53,304.00 C282.76,311.09 274.00,334.70 274.00,337.75 C274.00,345.58 282.21,352.94 301.72,362.58 L 313.70 368.50 L 314.27 430.50 C314.59,464.60 315.07,493.62 315.34,495.00 C315.61,496.38 315.87,498.43 315.92,499.56 C315.96,500.70 318.00,504.32 320.45,507.62 C324.79,513.45 325.38,513.84 342.20,521.92 C351.72,526.49 389.65,545.30 426.50,563.73 C463.35,582.16 496.42,598.25 500.00,599.50 ZM 528.78 325.87 C521.78,329.24 515.03,331.96 513.78,331.92 C512.53,331.87 498.23,325.64 482.00,318.07 C465.77,310.51 433.83,295.63 411.00,285.01 C388.17,274.39 366.24,264.18 362.25,262.32 C358.26,260.46 355.00,258.58 355.00,258.15 C355.00,257.34 393.07,238.49 418.50,226.71 C426.20,223.14 438.80,217.31 446.50,213.74 C454.20,210.18 472.35,201.77 486.84,195.06 L 513.18 182.85 L 553.34 201.86 C575.43,212.32 606.33,227.02 622.00,234.53 C637.67,242.05 654.66,250.18 659.75,252.61 C664.84,255.04 669.00,257.37 669.00,257.80 C669.00,259.07 638.75,273.86 574.00,304.23 C559.97,310.81 546.92,316.99 545.00,317.96 C543.08,318.94 535.78,322.50 528.78,325.87 ZM 512.00 477.50 C512.00,556.43 511.74,577.00 510.75,577.00 C510.06,577.00 481.37,562.93 446.99,545.75 C412.61,528.56 374.47,509.66 362.24,503.75 L 340.00 493.00 L 340.00 438.50 C340.00,390.49 340.18,384.00 341.51,384.00 C342.35,384.00 353.26,389.00 365.76,395.11 C378.27,401.22 397.05,410.27 407.50,415.21 C417.95,420.16 434.96,428.44 445.31,433.61 C456.46,439.17 465.34,443.00 467.11,443.00 C474.22,443.00 480.70,436.56 488.27,422.00 C491.27,416.23 497.64,403.96 502.42,394.75 C507.20,385.54 511.31,378.00 511.56,378.00 C511.80,378.00 512.00,422.77 512.00,477.50 ZM 471.08 399.25 C467.16,407.36 463.40,413.96 462.73,413.91 C459.69,413.68 302.47,335.10 302.19,333.66 C301.87,332.08 325.58,275.38 326.90,274.56 C327.52,274.18 344.04,281.61 374.00,295.73 C400.35,308.16 450.91,331.82 469.98,340.64 C482.34,346.37 492.83,351.43 493.30,351.90 C493.76,352.36 490.96,359.09 487.07,366.86 C483.18,374.62 480.00,381.62 480.00,382.40 C480.00,383.19 479.59,383.98 479.10,384.17 C478.60,384.35 474.99,391.14 471.08,399.25 ZM 641.70 372.75 C597.55,394.89 561.10,413.00 560.71,413.00 C559.76,413.00 530.82,355.05 531.20,353.90 C531.37,353.40 543.43,347.33 558.00,340.40 L 612.50 314.51 C627.90,307.20 652.42,295.49 667.00,288.50 C681.58,281.50 694.42,275.57 695.54,275.31 C696.97,274.99 697.91,275.55 698.68,277.17 C702.34,284.90 706.79,294.83 710.71,304.00 C713.18,309.77 715.81,315.62 716.55,317.00 C718.97,321.50 722.00,329.22 721.99,330.88 C721.98,332.02 698.40,344.32 641.70,372.75 ZM 768.45 811.25 L 767.78 814.00 L 794.50 813.98 L 803.25 784.00 L 852.61 784.00 L 861.39 814.00 L 874.70 814.00 C882.01,814.00 888.00,813.61 888.00,813.14 C888.00,812.66 882.56,795.22 875.90,774.39 C869.25,753.55 859.43,722.78 854.07,706.00 L 844.34 675.50 L 827.67 675.23 C815.40,675.02 811.00,675.26 811.00,676.13 C811.00,677.16 801.72,706.78 788.48,748.00 C775.41,788.70 769.05,808.80 768.45,811.25 ZM 544.46 812.25 C543.84,813.86 544.84,814.00 557.23,814.00 L 570.68 814.00 L 571.75 810.25 C572.34,808.19 574.28,801.44 576.07,795.25 L 579.32 784.00 L 628.86 784.00 L 630.39 789.25 C631.23,792.14 633.23,798.78 634.84,804.00 L 637.76 813.50 L 651.45 813.78 L 665.15 814.06 L 664.45 811.78 C663.72,809.40 658.25,792.44 640.64,738.00 C634.86,720.12 627.96,698.64 625.32,690.25 L 620.50 675.00 L 588.41 675.00 L 566.77 742.75 C554.87,780.01 544.83,811.29 544.46,812.25 ZM 245.00 813.40 C245.00,813.73 250.83,814.00 257.96,814.00 L 270.91 814.00 L 274.02 803.75 C275.73,798.11 277.81,791.36 278.64,788.75 L 280.16 784.00 L 329.68 784.00 L 330.75 787.75 C331.34,789.81 333.28,796.56 335.07,802.75 L 338.32 814.00 L 351.66 814.00 C359.00,814.00 365.00,813.65 365.00,813.23 C365.00,812.81 359.80,796.27 353.45,776.48 C347.10,756.69 338.74,730.60 334.88,718.50 C331.03,706.40 326.29,691.66 324.35,685.75 L 320.83 675.00 L 288.40 675.00 L 285.13 685.75 C283.33,691.66 273.56,722.67 263.43,754.65 C253.29,786.63 245.00,813.07 245.00,813.40 ZM 470.97 816.00 C477.32,817.01 490.35,816.42 496.97,814.83 C514.51,810.62 529.03,796.36 534.40,778.07 C535.28,775.08 536.00,771.58 536.00,770.29 L 536.00 767.94 L 523.36 768.22 L 510.72 768.50 L 508.70 773.82 C506.28,780.19 499.28,788.28 493.61,791.26 C490.34,792.98 487.77,793.42 481.00,793.43 C471.40,793.43 467.99,792.15 461.67,786.14 C453.27,778.17 450.59,768.50 450.54,746.00 C450.49,724.01 452.87,714.58 460.68,705.92 C466.48,699.49 472.68,697.02 483.00,697.03 C489.09,697.04 492.65,697.56 495.54,698.88 C500.90,701.31 507.30,708.75 509.63,715.25 L 511.52 720.50 L 523.43 720.78 C529.98,720.94 535.75,720.65 536.25,720.15 C536.81,719.59 536.55,716.74 535.57,712.86 C530.49,692.72 516.80,678.98 497.25,674.39 C487.82,672.17 470.79,672.91 462.11,675.91 C439.97,683.55 427.28,702.02 423.92,731.50 C421.55,752.30 424.70,773.86 432.22,788.31 C440.41,804.05 453.20,813.19 470.97,816.00 ZM 149.00 674.94 L 149.00 814.00 L 234.00 814.00 L 234.00 791.00 L 175.02 791.00 L 174.76 733.25 L 174.50 675.50 L 161.75 675.22 ZM 700.39 814.58 C709.11,816.57 724.86,815.82 732.14,813.07 C743.57,808.75 750.35,801.69 754.21,790.09 C756.33,783.71 756.42,781.82 756.77,731.61 C756.98,703.06 756.88,678.65 756.55,677.36 C755.97,675.05 755.73,675.00 744.01,675.00 L 732.07 675.00 L 731.78 729.43 C731.51,782.61 731.45,783.92 729.44,786.62 C725.77,791.53 722.40,793.34 716.12,793.80 C703.95,794.68 698.70,790.51 697.58,779.09 L 696.88 772.00 L 673.00 772.00 L 673.02 777.25 C673.04,783.68 675.30,794.75 677.45,798.90 C681.34,806.43 689.69,812.13 700.39,814.58 ZM 621.88 759.66 L 622.81 762.83 L 604.41 762.66 C594.29,762.57 586.00,762.20 586.00,761.83 C586.00,760.60 602.01,704.55 603.06,702.10 C603.66,700.70 604.46,700.07 604.96,700.60 C605.44,701.09 609.23,713.88 613.39,729.00 C617.55,744.12 621.37,757.92 621.88,759.66 ZM 846.00 762.56 C846.00,762.83 837.67,762.93 827.50,762.78 C814.44,762.58 809.12,762.17 809.41,761.39 C809.64,760.78 813.57,746.94 818.13,730.64 C823.33,712.06 826.89,701.00 827.68,701.00 C828.36,701.00 829.43,702.91 830.05,705.25 C830.67,707.59 834.51,721.33 838.59,735.78 C842.66,750.24 846.00,762.29 846.00,762.56 ZM 322.52 761.19 C322.92,762.24 319.38,762.50 304.52,762.50 C288.55,762.50 286.08,762.30 286.46,761.00 C287.43,757.68 300.90,709.21 301.95,705.25 C302.57,702.91 303.63,701.00 304.31,701.00 C305.08,701.00 308.68,712.20 313.78,730.44 C318.31,746.63 322.24,760.47 322.52,761.19 Z" fill="rgb(13,132,208)"/>
<path d="M 768.45 811.25 C769.05,808.80 775.41,788.70 788.48,748.00 C801.72,706.78 811.00,677.16 811.00,676.13 C811.00,675.26 815.40,675.02 827.67,675.23 L 844.34 675.50 L 854.07 706.00 C859.43,722.78 869.25,753.55 875.90,774.39 C882.56,795.22 888.00,812.66 888.00,813.14 C888.00,813.61 882.01,814.00 874.70,814.00 L 861.39 814.00 L 852.61 784.00 L 803.25 784.00 L 794.50 813.98 L 767.78 814.00 ZM 544.46 812.25 C544.83,811.29 554.87,780.01 566.77,742.75 L 588.41 675.00 L 620.50 675.00 L 625.32 690.25 C627.96,698.64 634.86,720.12 640.64,738.00 C658.25,792.44 663.72,809.40 664.45,811.78 L 665.15 814.06 L 651.45 813.78 L 637.76 813.50 L 634.84 804.00 C633.23,798.78 631.23,792.14 630.39,789.25 L 628.86 784.00 L 579.32 784.00 L 576.07 795.25 C574.28,801.44 572.34,808.19 571.75,810.25 L 570.68 814.00 L 557.23 814.00 C544.84,814.00 543.84,813.86 544.46,812.25 ZM 245.00 813.40 C245.00,813.07 253.29,786.63 263.43,754.65 C273.56,722.67 283.33,691.66 285.13,685.75 L 288.40 675.00 L 320.83 675.00 L 324.35 685.75 C326.29,691.66 331.03,706.40 334.88,718.50 C338.74,730.60 347.10,756.69 353.45,776.48 C359.80,796.27 365.00,812.81 365.00,813.23 C365.00,813.65 359.00,814.00 351.66,814.00 L 338.32 814.00 L 335.07 802.75 C333.28,796.56 331.34,789.81 330.75,787.75 L 329.68 784.00 L 280.16 784.00 L 278.64 788.75 C277.81,791.36 275.73,798.11 274.02,803.75 L 270.91 814.00 L 257.96 814.00 C250.83,814.00 245.00,813.73 245.00,813.40 ZM 470.97 816.00 C453.20,813.19 440.41,804.05 432.22,788.31 C424.70,773.86 421.55,752.30 423.92,731.50 C427.28,702.02 439.97,683.55 462.11,675.91 C470.79,672.91 487.82,672.17 497.25,674.39 C516.80,678.98 530.49,692.72 535.57,712.86 C536.55,716.74 536.81,719.59 536.25,720.15 C535.75,720.65 529.98,720.94 523.43,720.78 L 511.52 720.50 L 509.63 715.25 C507.30,708.75 500.90,701.31 495.54,698.88 C492.65,697.56 489.09,697.04 483.00,697.03 C472.68,697.02 466.48,699.49 460.68,705.92 C452.87,714.58 450.49,724.01 450.54,746.00 C450.59,768.50 453.27,778.17 461.67,786.14 C467.99,792.15 471.40,793.43 481.00,793.43 C487.77,793.42 490.34,792.98 493.61,791.26 C499.28,788.28 506.28,780.19 508.70,773.82 L 510.72 768.50 L 523.36 768.22 L 536.00 767.94 L 536.00 770.29 C536.00,771.58 535.28,775.08 534.40,778.07 C529.03,796.36 514.51,810.62 496.97,814.83 C490.35,816.42 477.32,817.01 470.97,816.00 ZM 149.00 674.94 L 161.75 675.22 L 174.50 675.50 L 174.76 733.25 L 175.02 791.00 L 234.00 791.00 L 234.00 814.00 L 149.00 814.00 ZM 700.39 814.58 C689.69,812.13 681.34,806.43 677.45,798.90 C675.30,794.75 673.04,783.68 673.02,777.25 L 673.00 772.00 L 696.88 772.00 L 697.58 779.09 C698.70,790.51 703.95,794.68 716.12,793.80 C722.40,793.34 725.77,791.53 729.44,786.62 C731.45,783.92 731.51,782.61 731.78,729.43 L 732.07 675.00 L 744.01 675.00 C755.73,675.00 755.97,675.05 756.55,677.36 C756.88,678.65 756.98,703.06 756.77,731.61 C756.42,781.82 756.33,783.71 754.21,790.09 C750.35,801.69 743.57,808.75 732.14,813.07 C724.86,815.82 709.11,816.57 700.39,814.58 ZM 621.88 759.66 C621.37,757.92 617.55,744.12 613.39,729.00 C609.23,713.88 605.44,701.09 604.96,700.60 C604.46,700.07 603.66,700.70 603.06,702.10 C602.01,704.55 586.00,760.60 586.00,761.83 C586.00,762.20 594.29,762.57 604.41,762.66 L 622.81 762.83 ZM 846.00 762.56 C846.00,762.29 842.66,750.24 838.59,735.78 C834.51,721.33 830.67,707.59 830.05,705.25 C829.43,702.91 828.36,701.00 827.68,701.00 C826.89,701.00 823.33,712.06 818.13,730.64 C813.57,746.94 809.64,760.78 809.41,761.39 C809.12,762.17 814.44,762.58 827.50,762.78 C837.67,762.93 846.00,762.83 846.00,762.56 ZM 322.52 761.19 C322.24,760.47 318.31,746.63 313.78,730.44 C308.68,712.20 305.08,701.00 304.31,701.00 C303.63,701.00 302.57,702.91 301.95,705.25 C300.90,709.21 287.43,757.68 286.46,761.00 C286.08,762.30 288.55,762.50 304.52,762.50 C319.38,762.50 322.92,762.24 322.52,761.19 Z" fill="rgb(250,253,250)"/>
<path d="M 500.00 599.50 C496.42,598.25 463.35,582.16 426.50,563.73 C389.65,545.30 351.72,526.49 342.20,521.92 C325.38,513.84 324.79,513.45 320.45,507.62 C318.00,504.32 315.96,500.70 315.92,499.56 C315.87,498.43 315.61,496.38 315.34,495.00 C315.07,493.62 314.59,464.60 314.27,430.50 L 313.70 368.50 L 301.72 362.58 C282.21,352.94 274.00,345.58 274.00,337.75 C274.00,334.70 282.76,311.09 286.53,304.00 C287.26,302.62 289.53,297.45 291.58,292.50 C293.62,287.55 296.34,281.25 297.61,278.50 C298.87,275.75 300.86,271.02 302.03,268.00 C303.19,264.98 305.25,260.02 306.61,257.00 C309.85,249.78 312.58,248.09 345.00,233.27 C356.74,227.90 360.92,225.95 373.00,220.22 C379.88,216.95 390.67,211.92 397.00,209.03 C409.67,203.24 416.15,200.20 435.50,190.96 C442.65,187.55 454.58,181.93 462.00,178.47 C469.42,175.02 480.72,169.76 487.10,166.78 C493.47,163.81 500.82,160.12 503.43,158.59 C509.73,154.90 514.69,154.94 523.00,158.75 C529.11,161.55 593.64,192.40 649.50,219.22 C705.58,246.16 714.58,251.60 719.91,261.87 C721.23,264.41 726.03,275.27 730.57,286.00 C735.10,296.73 741.33,311.23 744.41,318.24 C751.84,335.18 751.98,338.97 745.45,345.95 C741.80,349.85 737.93,352.26 725.97,358.08 L 711.05 365.34 L 710.78 432.92 C710.51,499.05 710.46,500.57 708.44,504.00 C705.38,509.22 698.65,513.80 677.56,525.02 C643.76,543.01 545.05,591.47 526.61,599.14 C517.98,602.73 509.59,602.84 500.00,599.50 ZM 512.00 477.50 C512.00,422.77 511.80,378.00 511.56,378.00 C511.31,378.00 507.20,385.54 502.42,394.75 C497.64,403.96 491.27,416.23 488.27,422.00 C480.70,436.56 474.22,443.00 467.11,443.00 C465.34,443.00 456.46,439.17 445.31,433.61 C434.96,428.44 417.95,420.16 407.50,415.21 C397.05,410.27 378.27,401.22 365.76,395.11 C353.26,389.00 342.35,384.00 341.51,384.00 C340.18,384.00 340.00,390.49 340.00,438.50 L 340.00 493.00 L 362.24 503.75 C374.47,509.66 412.61,528.56 446.99,545.75 C481.37,562.93 510.06,577.00 510.75,577.00 C511.74,577.00 512.00,556.43 512.00,477.50 ZM 471.08 399.25 C474.99,391.14 478.60,384.35 479.10,384.17 C479.59,383.98 480.00,383.19 480.00,382.40 C480.00,381.62 483.18,374.62 487.07,366.86 C490.96,359.09 493.76,352.36 493.30,351.90 C492.83,351.43 482.34,346.37 469.98,340.64 C450.91,331.82 400.35,308.16 374.00,295.73 C344.04,281.61 327.52,274.18 326.90,274.56 C325.58,275.38 301.87,332.08 302.19,333.66 C302.47,335.10 459.69,413.68 462.73,413.91 C463.40,413.96 467.16,407.36 471.08,399.25 ZM 641.70 372.75 C698.40,344.32 721.98,332.02 721.99,330.88 C722.00,329.22 718.97,321.50 716.55,317.00 C715.81,315.62 713.18,309.77 710.71,304.00 C706.79,294.83 702.34,284.90 698.68,277.17 C697.91,275.55 696.97,274.99 695.54,275.31 C694.42,275.57 681.58,281.50 667.00,288.50 C652.42,295.49 627.90,307.20 612.50,314.51 C597.10,321.83 572.58,333.48 558.00,340.40 C543.43,347.33 531.37,353.40 531.20,353.90 C530.82,355.05 559.76,413.00 560.71,413.00 C561.10,413.00 597.55,394.89 641.70,372.75 ZM 528.78 325.87 C535.78,322.50 543.08,318.94 545.00,317.96 C546.92,316.99 559.97,310.81 574.00,304.23 C638.75,273.86 669.00,259.07 669.00,257.80 C669.00,257.37 664.84,255.04 659.75,252.61 C654.66,250.18 637.67,242.05 622.00,234.53 C606.33,227.02 575.43,212.32 553.34,201.86 L 513.18 182.85 L 486.84 195.06 C472.35,201.77 454.20,210.18 446.50,213.74 C438.80,217.31 426.20,223.14 418.50,226.71 C393.07,238.49 355.00,257.34 355.00,258.15 C355.00,258.58 358.26,260.46 362.25,262.32 C366.24,264.18 388.17,274.39 411.00,285.01 C433.83,295.63 465.77,310.51 482.00,318.07 C498.23,325.64 512.53,331.87 513.78,331.92 C515.03,331.96 521.78,329.24 528.78,325.87 Z" fill="rgb(251,221,84)"/>
</g>
</svg>